<svg version="1.1" xmlns="http://www.w3.org/2000/svg" style="display: block;" viewBox="0 0 1024 1024" width="256" height="256" preserveAspectRatio="none">
<defs>
	<linearGradient id="Gradient1" gradientUnits="userSpaceOnUse" x1="472.108" y1="348.823" x2="479.99" y2="363.7">
		<stop class="stop0" offset="0" stop-opacity="1" stop-color="rgb(197,121,52)"/>
		<stop class="stop1" offset="1" stop-opacity="1" stop-color="rgb(180,130,96)"/>
	</linearGradient>
	<linearGradient id="Gradient2" gradientUnits="userSpaceOnUse" x1="371.449" y1="675.039" x2="348.056" y2="673.756">
		<stop class="stop0" offset="0" stop-opacity="1" stop-color="rgb(185,106,21)"/>
		<stop class="stop1" offset="1" stop-opacity="1" stop-color="rgb(175,81,29)"/>
	</linearGradient>
</defs>

<path transform="translate(0,0)" fill="rgb(255,255,255)" d="M 336.991 624.009 C 344.877 623.492 357.874 622.098 364.848 626.19 C 378.391 633.574 371.766 650.254 361.003 652.061 L 358.977 653.728 C 376.074 662.081 379.431 664.682 372.946 683.893 C 365.311 690.209 363.621 691.971 353.908 694.787 C 349.688 695.57 327.703 696.031 325.42 694.686 C 326.556 692.906 328.135 690.962 329.441 689.262 C 331.123 676.871 330.208 642.367 329.951 628.501 L 314.399 624.991 C 322.929 623.968 328.344 623.952 336.991 624.009 z"/>
<path transform="translate(0,0)" fill="rgb(255,255,255)" d="M 336.991 624.009 C 344.877 623.492 357.874 622.098 364.848 626.19 C 378.391 633.574 371.766 650.254 361.003 652.061 L 359.228 650.572 C 355.917 654.162 343.789 653.57 338.843 653.725 L 338.887 628.969 L 339.098 628.309 C 338.315 627.109 337.604 625.361 336.991 624.009 z"/>
<path transform="translate(0,0)" fill="rgb(188,112,47)" d="M 364.848 626.19 C 378.391 633.574 371.766 650.254 361.003 652.061 L 359.228 650.572 C 362.812 640.548 364.648 642.061 361.35 630.926 L 362.347 630.736 L 360.798 628.954 C 361.522 626.625 361.977 629.403 364.848 626.19 z"/>
<path transform="translate(0,0)" fill="rgb(185,96,33)" d="M 336.991 624.009 C 344.877 623.492 357.874 622.098 364.848 626.19 C 361.977 629.403 361.522 626.625 360.798 628.954 L 362.347 630.736 L 361.35 630.926 C 352.452 627.445 348.468 627.972 339.098 628.309 C 338.315 627.109 337.604 625.361 336.991 624.009 z"/>
<path transform="translate(0,0)" fill="rgb(188,112,47)" d="M 314.399 624.991 C 322.929 623.968 328.344 623.952 336.991 624.009 C 337.604 625.361 338.315 627.109 339.098 628.309 L 338.887 628.969 L 338.843 653.725 C 343.789 653.57 355.917 654.162 359.228 650.572 L 361.003 652.061 L 358.977 653.728 C 356.157 655.99 356.84 654.81 356.196 658.077 C 349.937 657.85 344.758 657.801 338.497 657.986 C 338.706 666.063 337.465 684.887 340.62 690.803 C 343.266 692.537 343.168 691.967 346.837 692.013 C 349.367 695.015 349.082 694.357 353.908 694.787 C 349.688 695.57 327.703 696.031 325.42 694.686 C 326.556 692.906 328.135 690.962 329.441 689.262 C 331.123 676.871 330.208 642.367 329.951 628.501 L 314.399 624.991 z"/>
<path transform="translate(0,0)" fill="rgb(185,96,33)" d="M 329.441 689.262 L 329.59 690.553 C 331.323 692.962 330.392 692.227 333.103 693.365 C 343.913 688.702 333.425 638.801 338.887 628.969 L 338.843 653.725 C 343.789 653.57 355.917 654.162 359.228 650.572 L 361.003 652.061 L 358.977 653.728 C 356.157 655.99 356.84 654.81 356.196 658.077 C 349.937 657.85 344.758 657.801 338.497 657.986 C 338.706 666.063 337.465 684.887 340.62 690.803 C 343.266 692.537 343.168 691.967 346.837 692.013 C 349.367 695.015 349.082 694.357 353.908 694.787 C 349.688 695.57 327.703 696.031 325.42 694.686 C 326.556 692.906 328.135 690.962 329.441 689.262 z"/>
<path transform="translate(0,0)" fill="url(#Gradient2)" d="M 358.977 653.728 C 376.074 662.081 379.431 664.682 372.946 683.893 C 365.311 690.209 363.621 691.971 353.908 694.787 C 349.082 694.357 349.367 695.015 346.837 692.013 L 347.474 691.874 C 358.159 689.504 367.982 683.695 366.105 669.779 C 365.368 664.325 360.836 660.8 356.196 658.077 C 356.84 654.81 356.157 655.99 358.977 653.728 z"/>
<path transform="translate(0,0)" fill="rgb(255,255,255)" d="M 656.655 655.661 C 664.363 646.281 677.752 643.906 688.216 650.062 C 697.118 655.299 701.815 665.526 699.985 675.691 C 698.156 685.855 690.187 693.803 680.019 695.607 C 669.85 697.411 659.634 692.689 654.42 683.774 C 649.206 674.859 650.097 663.64 656.655 655.661 z"/>
<path transform="translate(0,0)" fill="rgb(109,27,16)" d="M 688.216 650.062 C 697.118 655.299 701.815 665.526 699.985 675.691 C 698.156 685.855 690.187 693.803 680.019 695.607 C 669.85 697.411 659.634 692.689 654.42 683.774 C 649.206 674.859 650.097 663.64 656.655 655.661 C 657.98 658.219 659.248 660.544 660.308 663.234 C 659.734 673.713 660.874 689.459 673.767 691.857 C 677.715 692.596 681.794 691.678 685.045 689.319 C 695.628 681.512 692.371 664.004 685.622 654.724 L 688.216 650.062 z"/>
<path transform="translate(0,0)" fill="rgb(109,27,16)" d="M 656.655 655.661 C 664.363 646.281 677.752 643.906 688.216 650.062 L 685.622 654.724 C 681.468 651.754 677.231 649.444 671.882 650.4 C 668.473 651.028 665.472 653.03 663.584 655.937 C 662.142 658.197 661.039 660.655 660.308 663.234 C 659.248 660.544 657.98 658.219 656.655 655.661 z"/>
<path transform="translate(0,0)" fill="rgb(188,112,47)" d="M 522.425 313.142 C 523.702 305.033 525.098 300.463 534.609 301.978 C 546.457 303.866 546.644 320.835 552.421 327.963 C 558.178 335.065 567.072 337.624 573.633 345.202 C 573.069 359.831 573.827 367.406 561.834 379.452 C 548.523 392.823 512.174 395.992 508.701 417.722 C 507.247 426.815 526.207 441.119 526.847 457.388 C 527.417 471.875 511.091 491.692 513.752 499.28 C 525.299 511.086 538.458 507.915 551.746 531.214 C 550.816 533.629 550.67 533.906 548.48 535.265 C 535.113 515.724 520.645 518.041 510.308 502.488 C 509.297 477.867 516.441 482.588 523.693 461.31 C 525.771 450.28 513.111 441.279 509.146 433.495 C 485.775 387.247 560.677 391.275 570.434 358.408 C 574.311 345.349 555.431 341.152 549.817 333.623 C 546.888 329.695 547.086 321.305 544.482 318.328 C 538.732 311.756 534.09 305.02 525.707 311.861 L 522.425 313.142 z"/>
<path transform="translate(0,0)" fill="rgb(109,27,16)" d="M 605.366 652.912 C 617.7 646.081 623.934 643.833 636.231 651.48 C 638.998 656.087 642.823 661.281 641.844 666.595 C 638.851 670.949 637.017 670.244 631.854 670.327 C 625.939 671.627 610.116 671.25 607.687 672.909 L 607.219 674.767 C 615.132 696.992 625.368 691.985 645.298 687.045 C 608.346 712.007 583.656 677.205 605.366 652.912 z"/>
<path transform="translate(0,0)" fill="rgb(255,255,255)" d="M 608.619 658.732 C 619.212 643.454 635.027 651.847 632.448 666.208 L 631.854 670.327 C 625.939 671.627 610.116 671.25 607.687 672.909 L 607.219 674.767 C 606.615 673.492 607.59 668.316 607.637 665.823 C 607.132 663.08 607.867 661.431 608.619 658.732 z"/>
<path transform="translate(0,0)" fill="rgb(158,132,131)" d="M 607.637 665.823 C 616.328 666.195 623.768 666.444 632.448 666.208 L 631.854 670.327 C 625.939 671.627 610.116 671.25 607.687 672.909 L 607.219 674.767 C 606.615 673.492 607.59 668.316 607.637 665.823 z"/>
<path transform="translate(0,0)" fill="rgb(255,255,255)" d="M 397.484 650.188 C 404.658 647.833 412.51 643.718 419.477 649.17 C 428.506 653.908 437.48 669.66 420.157 670.332 C 412.53 672.332 397.461 671.76 395.353 672.77 L 395.56 665.914 C 395.793 659.433 396.329 658.814 400.161 653.631 L 397.484 650.188 z"/>
<path transform="translate(0,0)" fill="rgb(188,112,47)" d="M 419.477 649.17 C 428.506 653.908 437.48 669.66 420.157 670.332 C 419.976 668.938 420.283 667.183 420.447 665.727 C 421.486 661.265 419.895 658.662 418.17 654.424 C 418.402 652.287 418.82 651.228 419.477 649.17 z"/>
<path transform="translate(0,0)" fill="rgb(206,177,154)" d="M 395.56 665.914 C 403.285 665.964 412.898 666.273 420.447 665.727 C 420.283 667.183 419.976 668.938 420.157 670.332 C 412.53 672.332 397.461 671.76 395.353 672.77 L 395.56 665.914 z"/>
<path transform="translate(0,0)" fill="rgb(185,96,33)" d="M 397.484 650.188 C 404.658 647.833 412.51 643.718 419.477 649.17 C 418.82 651.228 418.402 652.287 418.17 654.424 C 413.652 649.802 405.071 648.995 400.161 653.631 L 397.484 650.188 z"/>
<path transform="translate(0,0)" fill="rgb(86,67,55)" d="M 494.366 719.177 C 528.702 711.614 525.671 737.84 505.239 731.163 L 502.479 731.93 C 499.374 728.627 503.185 726.95 500.766 721.718 L 498.518 721.093 C 491.91 723.468 497.752 726.815 494.012 732.439 L 492.67 732.437 C 490.574 727.93 495.091 725.08 489.026 721.815 C 485.521 722.289 486.554 721.647 484.695 723.864 C 484.994 726.171 485.337 728.472 485.725 730.766 L 484.518 731.644 C 480.05 731.562 472.019 732.637 468.618 731.121 C 466.749 726.253 466.048 721.734 471.393 719.478 C 476.029 719.602 478.144 720.822 482.442 722.697 C 487.386 719.737 488.545 719.69 494.366 719.177 z"/>
<path transform="translate(0,0)" fill="rgb(248,239,245)" d="M 494.366 719.177 C 528.702 711.614 525.671 737.84 505.239 731.163 C 505.197 727.566 505.217 725.832 504.523 722.27 C 501.383 719.445 499.114 719.922 494.366 719.177 z"/>
<path transform="translate(0,0)" fill="rgb(109,27,16)" d="M 551.131 658.908 C 550.542 664.457 549.59 686.017 551.557 691.915 C 551.868 692.847 556.241 692.877 558.364 693.245 L 558.719 694.737 L 556.947 695.621 C 553.538 695.507 535.292 695.22 533.493 694.272 C 537.456 690.521 537.364 695.03 541.143 691.05 C 541.764 684.275 542.616 665.087 541.085 657.765 C 540.503 654.985 535.534 653.867 534.346 651.781 C 543.43 650.176 542.191 649.365 549.176 647.357 C 551.081 650.191 550.402 653.122 550.368 657.002 L 551.131 658.908 z"/>
<path transform="translate(0,0)" fill="rgb(188,112,47)" d="M 455.949 656.964 C 453.695 662.572 452.367 686.396 456.066 692.643 C 456.481 693.344 460.539 691.957 462.949 694.451 L 461.91 695.609 C 457.561 695.621 439.038 696.007 436.992 694.019 C 438.574 691.903 441.285 692.179 444.65 691.602 C 446.653 686.875 446.299 665.586 445.457 659.793 C 444.187 651.05 441.809 656.114 437.367 652.858 L 438.642 651.047 C 447.125 649.991 448.961 647.623 452.712 647.152 C 454.979 649.868 454.238 651.524 454.514 655.833 L 455.949 656.964 z"/>
<path transform="translate(0,0)" fill="rgb(188,112,47)" d="M 515.948 646.916 L 518.272 647.292 C 519.91 650.623 517.264 682.245 518.739 689.03 C 519.396 692.049 524.81 692.615 526.199 695.371 C 523.381 696.007 510.726 694.976 505.369 695.508 C 502.626 695.646 503.599 695.953 501.33 694.681 C 504.133 690.263 504.468 694.648 509.146 690.745 C 510.218 683.971 510.138 664.101 509.61 657.093 C 507.482 654.359 506.577 654.963 502.217 654.143 L 501.973 652.595 C 505.628 649.486 508.605 650.954 515.948 646.916 z"/>
<path transform="translate(0,0)" fill="rgb(188,112,47)" d="M 397.484 650.188 L 400.161 653.631 C 396.329 658.814 395.793 659.433 395.56 665.914 L 395.353 672.77 C 397.559 694.866 411.222 691.911 427.298 688.265 L 427.254 690.248 C 422.755 695.976 411.434 696.894 404.703 695.553 C 395.529 693.725 392.097 689.536 387.19 682.168 C 386.304 673.558 386.488 670.054 387.3 661.495 C 391.16 656.488 392.7 654.53 397.484 650.188 z"/>
<path transform="translate(0,0)" fill="url(#Gradient1)" d="M 451.643 395.394 C 449.408 385.744 450.642 369.131 456.435 360.96 C 466.795 346.347 481.702 343.112 498.029 339.633 C 506.194 343.114 505.374 343.966 514.162 341.696 C 493.286 352.986 464.341 346.769 454.731 374.266 C 453.37 378.161 454.036 382.68 453.36 386.267 C 452.425 389.826 452.11 391.734 451.643 395.394 z"/>
<path transform="translate(0,0)" fill="rgb(188,112,47)" d="M 549.165 549.862 L 552.962 549.972 C 546.175 564.559 532.666 560.461 527.675 566.548 L 528.085 567.709 C 535.635 568.426 547.56 558.373 553.707 575.048 C 556.062 581.437 555.07 587.799 551.337 593.475 L 549.572 589.108 C 551.484 585.631 551.962 583.141 552.154 579.294 C 547.082 567.885 531.874 578.558 523.706 571.806 C 522.18 569.418 521.802 562.231 523.577 561.307 C 533.07 556.368 539.875 556.662 549.165 549.862 z"/>
<path transform="translate(0,0)" fill="rgb(188,112,47)" d="M 476.581 655.893 C 476.561 655.217 476.87 653.794 477 653.057 C 480.023 650.963 480.047 651.598 484.249 651.242 C 489.248 658.581 486.622 690.079 488.523 691.425 C 490.143 692.572 493.301 692.537 495.406 693.984 L 494.781 695.119 C 489.453 696.39 483.727 695.093 477.964 695.333 C 478.359 685.268 480.399 664.289 476.581 655.893 z"/>
<path transform="translate(0,0)" fill="rgb(206,177,154)" d="M 494.551 460.831 C 496.438 467.129 494.958 476.299 495.504 482.865 C 498.042 513.402 488.593 550.47 491.32 579.514 L 489.329 580.764 C 485.054 568.243 491.384 536.299 491.565 522.913 C 491.779 507.067 493.734 475.236 491.26 460.278 L 494.551 460.831 z"/>
<path transform="translate(0,0)" fill="rgb(125,58,51)" d="M 583.622 661.412 C 583.916 669.55 583.47 682.987 584.112 690.013 C 585.682 690.956 590.738 693.748 591.542 694.915 C 588.745 696.406 577.796 695.104 573.975 694.786 C 574.607 683.368 575.025 673.556 574.98 662.089 L 583.622 661.412 z"/>
<path transform="translate(0,0)" fill="rgb(188,112,47)" d="M 570.978 406.768 C 570.16 403.082 568.56 397.43 569.03 393.881 L 570.272 392.495 L 569.127 392.906 L 569.838 391.012 C 573.974 396.914 573.072 407.82 572.997 414.93 C 564.047 430.504 548.6 437.224 544.684 451.591 C 541.608 450.076 542.275 448.53 541.555 445.034 C 549.602 428.301 563.77 426.32 570.978 406.768 z"/>
<path transform="translate(0,0)" fill="rgb(185,96,33)" d="M 512.996 602.211 C 524.039 592.356 532.216 598.972 549.572 589.108 L 551.337 593.475 C 536.105 606.597 528.883 598.918 517.418 605.201 L 512.996 602.211 z"/>
<path transform="translate(0,0)" fill="rgb(188,112,47)" d="M 531.572 524.864 L 532.692 526.499 C 535.334 544.186 513.433 546.884 507.098 560.164 C 499.229 550.66 520.362 539.329 527.03 534.894 C 528.685 531.881 530.197 528.077 531.572 524.864 z"/>
<path transform="translate(0,0)" fill="rgb(188,112,47)" d="M 453.36 386.267 C 458.414 407.853 472.678 399.663 480.825 414.829 L 476.357 416.623 C 463.819 409.786 458.556 407.941 451.643 395.394 C 452.11 391.734 452.425 389.826 453.36 386.267 z"/>
<path transform="translate(0,0)" fill="rgb(206,177,154)" d="M 541.555 445.034 C 542.275 448.53 541.608 450.076 544.684 451.591 C 542.101 461.848 542.198 470.572 540.171 479.669 C 538.137 488.796 535.845 497.011 533.745 506.674 L 532.268 507.486 L 532.382 507.542 C 529.44 502.313 541.014 459.739 541.555 445.034 z"/>
<path transform="translate(0,0)" fill="rgb(112,81,70)" d="M 328.861 713.514 C 334.564 716.572 328.714 726.118 334.171 730.425 C 341.696 729.061 342.797 717.579 352.443 719.394 C 355.402 722.468 354.532 721.55 355.343 726.362 C 350.722 728.728 354.493 725.315 348.566 725.742 L 346.379 730.091 C 343.806 731.842 332.464 732.493 328.134 733.026 C 328.182 726.575 328.052 719.895 328.861 713.514 z"/>
<path transform="translate(0,0)" fill="rgb(188,112,47)" d="M 491.32 579.514 C 500.841 580.984 504.253 580.034 513.221 577.485 C 515.159 578.562 516.503 579.139 518.036 580.789 C 512.299 585.945 501.761 590.127 494.119 587.401 C 490.993 586.286 490.561 583.561 489.329 580.764 L 491.32 579.514 z"/>
<path transform="translate(0,0)" fill="rgb(109,27,16)" d="M 563.098 646.168 C 575.436 646.571 582.124 648.584 583.622 661.412 L 574.98 662.089 C 572.946 655.286 569.897 654.657 563.952 651.756 C 562.326 648.198 562.452 649.655 563.098 646.168 z"/>
<path transform="translate(0,0)" fill="rgb(197,148,110)" d="M 517.418 605.201 C 508.579 614.237 517.99 623.617 517.325 632.636 C 515.413 635.144 516.536 634.42 512.641 634.956 C 506.475 630.464 509.741 608.142 512.996 602.211 L 517.418 605.201 z"/>
<path transform="translate(0,0)" fill="rgb(86,67,55)" d="M 385.488 730.018 C 387.224 723.49 388.076 718.285 396.182 719.711 C 400.464 722.99 402.234 726.692 399.187 731.603 C 395.502 733.15 391.958 731.632 388.157 732.117 L 385.488 730.018 z"/>
<path transform="translate(0,0)" fill="rgb(255,255,255)" d="M 392.8 720.625 C 396.379 722.478 395.457 721.416 397.047 724.462 C 397.113 728.053 396.028 729.517 394.325 732.681 C 391.586 730.626 391.307 730.333 390.363 727.054 C 390.639 723.871 391.145 723.273 392.8 720.625 z"/>
<path transform="translate(0,0)" fill="rgb(188,112,47)" d="M 454.514 655.833 C 467.565 650.066 463.781 639.43 484.249 651.242 C 480.047 651.598 480.023 650.963 477 653.057 C 476.87 653.794 476.561 655.217 476.581 655.893 C 466.103 652.035 466.904 652.448 455.949 656.964 L 454.514 655.833 z"/>
<path transform="translate(0,0)" fill="rgb(86,67,55)" d="M 633.612 713.385 C 634.579 713.816 635.957 714.678 636.917 715.232 C 639.232 720.324 633.349 725.04 637.563 730.198 L 639.816 729.716 C 646.862 722.424 639.539 721.897 642.005 715.297 L 645.745 714.714 C 645.943 719.629 647.394 726.743 645.523 730.324 C 641.296 733.442 637.064 733.036 633.19 729.633 C 631.65 726.129 633.237 717.927 633.612 713.385 z"/>
<path transform="translate(0,0)" fill="rgb(188,112,47)" d="M 521.542 324.199 C 522.463 326.377 523.477 328.489 523.976 330.79 C 521.411 334.677 518.431 339.55 514.162 341.696 C 505.374 343.966 506.194 343.114 498.029 339.633 C 509.744 337.65 517.065 335.605 521.542 324.199 z"/>
<path transform="translate(0,0)" fill="rgb(206,177,154)" d="M 480.825 414.829 C 484.544 420.918 479.695 430.006 485.338 438.326 L 481.469 441.911 C 475.47 431.674 480.167 427.805 476.357 416.623 L 480.825 414.829 z"/>
<path transform="translate(0,0)" fill="rgb(188,112,47)" d="M 513.221 577.485 C 513.533 570.461 506.611 571.472 505.124 565.506 L 505.893 563.467 C 510.343 563.116 517.781 569.142 518.878 573.544 C 519.34 575.397 518.487 578.851 518.036 580.789 C 516.503 579.139 515.159 578.562 513.221 577.485 z"/>
<path transform="translate(0,0)" fill="rgb(188,112,47)" d="M 418.486 625.687 C 419.268 626.371 419.81 627.218 420.445 628.063 C 419.602 632.607 406.653 639.485 402.25 642.315 L 400.801 640.956 L 401.204 639.143 C 405.697 633.979 412.211 628.493 418.486 625.687 z"/>
<path transform="translate(0,0)" fill="rgb(248,239,245)" d="M 382.08 720.84 C 383.174 723.945 383.704 727.999 385.488 730.018 L 388.157 732.117 C 384.525 732.428 377.293 733.363 374.502 731.41 C 372.234 727.803 372.988 728.053 372.924 723.113 C 377.316 723.972 379.324 724.393 382.08 720.84 z"/>
<path transform="translate(0,0)" fill="rgb(86,67,55)" d="M 546.561 719.271 C 550.801 719.509 562.698 720.595 562.565 726.201 C 560.592 728.644 559.119 731.533 556.684 731.956 L 556.885 729.725 C 557.061 725.431 557.133 724.663 554.932 721.699 L 553.268 721.521 C 551.006 723.57 549.54 728.517 548.367 731.606 L 547.26 732.033 L 548.295 731.892 L 547.147 731.25 C 546.537 727.656 546.616 723.007 546.561 719.271 z"/>
<path transform="translate(0,0)" fill="rgb(197,148,110)" d="M 485.338 438.326 C 488.974 446.19 492.013 452.476 494.551 460.831 L 491.26 460.278 C 487.8 455.682 483.943 447.2 481.469 441.911 L 485.338 438.326 z"/>
<path transform="translate(0,0)" fill="rgb(109,27,16)" d="M 629.982 625.515 L 632.385 627.178 L 632.311 629.2 C 629.324 633.191 619.378 639.062 614.727 642.083 L 613.165 641.636 L 612.812 640.375 C 616.702 635.329 624.708 629.165 629.982 625.515 z"/>
<path transform="translate(0,0)" fill="rgb(86,67,55)" d="M 611.268 718.757 C 616.529 722.62 611.452 724.121 616.331 730.619 L 618.02 730.531 C 622.427 724.454 618.056 724.433 621.084 719.313 L 622.956 720.258 L 622.989 733.324 C 618.538 732.474 614.197 732.289 609.687 731.994 C 609.828 727.442 609.677 723.021 611.268 718.757 z"/>
<path transform="translate(0,0)" fill="rgb(112,81,70)" d="M 364.3 719.131 C 369.712 719.777 377.321 719.254 382.08 720.84 C 379.324 724.393 377.316 723.972 372.924 723.113 L 369.965 722.442 L 368.151 723.672 C 367.386 727.45 366.891 728.591 365.386 732.142 C 364.221 727.977 364.375 723.476 364.3 719.131 z"/>
<path transform="translate(0,0)" fill="rgb(112,81,70)" d="M 657.21 712.383 L 657.703 712.824 C 657.703 723.206 658.271 724.052 656.578 734.404 C 647.807 729.212 654.941 719.111 657.21 712.383 z"/>
<path transform="translate(0,0)" fill="rgb(112,81,70)" d="M 599.76 718.214 C 601.662 718.758 601.557 718.742 603.011 720.117 C 604.053 724.037 603.489 730.48 602.006 734.172 C 599.512 733.419 599.238 733.467 597.606 731.575 C 596.513 727.823 598.65 722.207 599.76 718.214 z"/>
<path transform="translate(0,0)" fill="rgb(86,67,55)" d="M 429.493 710.814 L 430.694 712.119 C 432.605 719.997 433.892 726.474 429.937 733.642 L 427.612 732.562 C 428.477 727.053 428.86 717.044 429.493 710.814 z"/>
<path transform="translate(0,0)" fill="rgb(112,81,70)" d="M 459 718.222 C 461.245 718.659 461.307 718.69 463.031 720.139 C 461.82 722.061 460.629 723.996 459.46 725.944 C 460.066 729.455 460.204 728.687 463.035 731.7 C 461.749 733.189 460.603 733.052 458.936 732.865 C 454.272 728.11 455.727 723.309 459 718.222 z"/>
<path transform="translate(0,0)" fill="rgb(206,177,154)" d="M 551.746 531.214 C 553.925 538.713 555.483 542.369 552.962 549.972 L 549.165 549.862 C 553.033 544.961 551.057 540.063 548.48 535.265 C 550.67 533.906 550.816 533.629 551.746 531.214 z"/>
<path transform="translate(0,0)" fill="rgb(112,81,70)" d="M 665.367 718.436 C 668.376 719.044 669.041 719.134 671.826 720.643 C 668.432 726.011 668.312 721.286 666.498 729.441 C 667.269 730.463 667.003 729.86 666.859 731.445 L 665.288 731.221 C 662.711 726.419 663.938 723.531 665.367 718.436 z"/>
<path transform="translate(0,0)" fill="rgb(112,81,70)" d="M 550.368 657.002 C 555.853 654.318 557.725 647.871 563.098 646.168 C 562.452 649.655 562.326 648.198 563.952 651.756 C 559.289 654.154 555.61 656.078 551.131 658.908 L 550.368 657.002 z"/>
<path transform="translate(0,0)" fill="rgb(86,67,55)" d="M 420.925 719.179 C 426.91 720.627 421.394 725.249 423.86 733.169 C 421.267 732.319 420.979 732.366 419.39 730.301 C 418.329 726.898 419.943 722.738 420.925 719.179 z"/>
<path transform="translate(0,0)" fill="rgb(86,67,55)" d="M 524.521 718.595 C 526.775 720.085 527.016 720.743 527.487 723.042 C 528.229 726.709 527.477 730.52 525.398 733.631 C 524.213 731.678 523.323 720.906 524.521 718.595 z"/>
<path transform="translate(0,0)" fill="rgb(206,177,154)" d="M 525.707 311.861 C 523.866 318.402 523.729 324.014 523.976 330.79 C 523.477 328.489 522.463 326.377 521.542 324.199 C 521.299 322.181 522.165 315.545 522.425 313.142 L 525.707 311.861 z"/>
</svg>